<svg width="24" height="24" viewBox="0 0 24 24" fill="none" xmlns="http://www.w3.org/2000/svg">
<path opacity="0.1" fill-rule="evenodd" clip-rule="evenodd" d="M0 12C0 5.37258 5.37258 0 12 0C18.6274 0 24 5.37258 24 12C24 18.6274 18.6274 24 12 24C5.37258 24 0 18.6274 0 12Z" fill="white"/>
<path fill-rule="evenodd" clip-rule="evenodd" d="M18.4001 11.9912C18.4001 12.424 18.356 12.8563 18.2695 13.2776C18.1851 13.6889 18.0601 14.0927 17.8963 14.4787C17.7363 14.8579 17.5379 15.2233 17.306 15.5641C17.0776 15.9027 16.8144 16.2204 16.5253 16.5099C16.2356 16.7983 15.9169 17.0607 15.5784 17.2901C15.2365 17.5204 14.8706 17.7186 14.4912 17.8793C14.1046 18.0422 13.6999 18.167 13.2889 18.2513C12.867 18.338 12.4333 18.3823 11.9998 18.3823C11.566 18.3823 11.1323 18.338 10.711 18.2513C10.2994 18.167 9.89471 18.0422 9.50844 17.8793C9.12905 17.7186 8.76277 17.5204 8.42088 17.2901C8.08243 17.0607 7.76366 16.7983 7.47458 16.5099C7.1852 16.2204 6.92205 15.9027 6.69329 15.5641C6.46265 15.2233 6.26388 14.8579 6.10326 14.4787C5.93948 14.0927 5.81418 13.6889 5.72948 13.2776C5.64386 12.8563 5.6001 12.424 5.6001 11.9912C5.6001 11.5581 5.64384 11.1249 5.72951 10.7045C5.8142 10.2932 5.9395 9.88881 6.10328 9.50342C6.2639 9.12396 6.46268 8.75823 6.69332 8.41744C6.92207 8.07854 7.18523 7.76147 7.47461 7.47155C7.76369 7.18319 8.08245 6.92139 8.42091 6.69234C8.76279 6.46108 9.12908 6.26295 9.50846 6.10191C9.89474 5.93866 10.2994 5.81354 10.711 5.72992C11.1323 5.6438 11.5661 5.6001 11.9998 5.6001C12.4333 5.6001 12.8671 5.6438 13.2889 5.72992C13.6999 5.81357 14.1046 5.93869 14.4912 6.10191C14.8706 6.26292 15.2366 6.46108 15.5784 6.69234C15.9169 6.92139 16.2357 7.18319 16.5254 7.47155C16.8144 7.76147 17.0776 8.07854 17.306 8.41744C17.5379 8.75823 17.7363 9.12398 17.8963 9.50342C18.0601 9.88881 18.1851 10.2932 18.2695 10.7045C18.356 11.1249 18.4001 11.5581 18.4001 11.9912ZM9.66779 7.05463C8.14363 7.77334 7.00607 9.17575 6.65136 10.8659C6.79545 10.8672 9.07307 10.8959 11.6973 10.1996C10.7513 8.52133 9.74061 7.15171 9.66779 7.05463ZM12.1501 11.0401C9.33589 11.8814 6.63543 11.8208 6.53856 11.8171C6.53698 11.8758 6.53417 11.9325 6.53417 11.9912C6.53417 13.3933 7.06389 14.6715 7.93456 15.638C7.93268 15.6352 9.4284 12.9855 12.3779 12.033C12.4492 12.0093 12.5217 11.9881 12.5936 11.9675C12.4564 11.6573 12.3067 11.3465 12.1501 11.0401ZM15.6094 7.89504C14.6471 7.04776 13.3836 6.53382 11.9998 6.53382C11.5557 6.53382 11.1247 6.5875 10.7119 6.68673C10.7938 6.79659 11.8204 8.15656 12.7551 9.8704C14.8174 9.09836 15.5959 7.915 15.6094 7.89504ZM12.9661 12.8719C12.9539 12.8759 12.9418 12.8794 12.9299 12.8837C9.70507 14.0063 8.65196 16.2687 8.64057 16.2934C9.56845 17.0139 10.7323 17.4486 11.9998 17.4486C12.7567 17.4486 13.4777 17.2947 14.1337 17.0161C14.0527 16.5393 13.7352 14.8678 12.9661 12.8719ZM15.054 16.5174C16.2813 15.6905 17.1528 14.3773 17.396 12.8562C17.2835 12.82 15.7543 12.3366 13.9902 12.6191C14.7071 14.5864 14.9984 16.1885 15.054 16.5174ZM13.1758 10.6837C13.3027 10.9439 13.4255 11.2088 13.539 11.4751C13.5793 11.5706 13.6187 11.6642 13.6571 11.7578C15.5347 11.5219 17.3845 11.9188 17.4635 11.935C17.451 10.6412 16.9876 9.45379 16.2207 8.52416C16.2104 8.5388 15.3338 9.80361 13.1758 10.6837Z" fill="white"/>
</svg>
