<svg width="114" height="30" viewBox="0 0 114 30" fill="none" xmlns="http://www.w3.org/2000/svg">
<g clip-path="url(#clip0_1_496)">
<path d="M14.2688 14.832C14.7742 15.566 15.4446 15.7804 16.939 15.566C16.0494 15.7617 15.3975 16.1145 14.9432 16.5601C14.9431 16.5601 14.943 16.5603 14.9427 16.5603C13.4664 17.9985 14.0416 20.403 15.0819 21.5228C16.3416 22.8835 18.437 24.2578 20.9755 24.6271C21.0965 24.6457 21.2209 24.6612 21.349 24.6739C23.1036 24.7609 24.935 23.9672 26.144 22.7162C26.9901 21.8419 27.536 20.7434 27.536 19.5655V9.01399C27.536 8.54747 27.2026 7.97216 26.796 7.73795L14.7484 0.778928C14.3456 0.544719 13.6827 0.544719 13.2759 0.778928L1.22865 7.73795C0.825563 7.97216 0.492188 8.54732 0.492188 9.01399V22.9331C0.492188 23.4006 0.825563 23.9752 1.22865 24.2094L7.70481 27.9516L8.03075 28.1403C9.94641 29.2121 11.4664 29.5069 12.5654 29.2829C13.2141 29.1524 13.712 28.8386 14.0561 28.3966C14.972 27.2187 14.7707 25.1318 13.3201 23.1766C11.1481 20.2469 11.573 17.7662 12.8476 15.9743C12.551 15.9373 12.2213 15.9743 11.8657 16.1785C11.9356 15.8297 12.2138 15.4312 12.6462 15.25C12.3091 15.3052 11.8879 15.2542 11.5984 14.9851C12.0089 14.9949 12.3347 14.8645 12.5876 14.6194C12.1955 14.5252 11.95 14.1397 12.049 13.6904C12.6279 14.3467 13.4154 14.741 14.2688 14.8316V14.832ZM19.0525 20.3764C16.2724 19.7237 16.3199 16.4636 19.2687 15.9748C20.1772 15.8243 21.0634 16.2396 21.2171 16.9768C22.2467 13.7463 19.2137 12.7158 18.7117 12.6318C18.7117 12.2703 16.9572 10.4047 13.7302 11.352C10.4994 12.2976 8.91348 11.4907 8.5801 10.2647C8.32373 11.1989 8.67533 12.137 9.331 12.5766C9.01964 12.5726 8.63523 12.4277 8.21756 11.9643C8.32373 12.6377 8.67533 13.1342 9.10773 13.4685C8.80731 13.4078 8.59848 13.3193 8.21756 12.9952C8.25417 13.4117 8.52512 14.3586 9.12217 14.6647C8.74869 14.6862 8.49581 15.0614 8.55079 15.4458C8.88067 15.1736 9.42273 15.097 9.69354 15.4458C9.14798 16.0299 8.74869 16.8378 8.55079 17.589C8.72302 17.7364 8.94658 17.9152 9.22119 17.9791C8.69356 19.201 8.53592 20.6245 8.67519 22.0677C8.96831 24.8503 7.81433 25.0545 5.84748 23.9319L5.80344 23.9062L3.77796 22.7363C3.37487 22.5026 3.04165 21.9287 3.04165 21.461V10.4885C3.04165 10.0205 3.37487 9.44639 3.77796 9.21247L13.2758 3.72622C13.6824 3.49245 14.3455 3.49245 14.7483 3.72622L24.2465 9.21247C24.6531 9.44624 24.9826 10.0204 24.9826 10.4885V13.1081C25.1145 18.5888 22.1881 20.951 19.0525 20.3764Z" fill="white"/>
</g>
<path d="M42.8523 9.58807H48.196V24H51.8438V9.58807H57.1875V6.54545H42.8523V9.58807ZM65.8977 24.2386C69.8182 24.2386 72.6222 22.0824 72.6136 19.0994C72.6222 16.9261 71.2415 15.375 68.6761 15.0511V14.9148C70.6278 14.5653 71.9744 13.1847 71.9659 11.2244C71.9744 8.47159 69.5625 6.30682 65.9489 6.30682C62.3693 6.30682 59.6761 8.40341 59.625 11.4205H63.1619C63.2045 10.0909 64.4233 9.23011 65.9318 9.23011C67.4233 9.23011 68.4205 10.1335 68.4119 11.446C68.4205 12.8182 67.2528 13.7472 65.5739 13.7472H63.946V16.4574H65.5739C67.5511 16.4574 68.7869 17.446 68.7784 18.8523C68.7869 20.2415 67.5938 21.196 65.9062 21.196C64.2784 21.196 63.0597 20.3438 62.9915 19.0653H59.2756C59.3352 22.1165 62.0625 24.2386 65.8977 24.2386ZM81.9652 24.2386C85.8516 24.2557 88.5021 21.7074 88.4936 18.1534C88.5021 14.8807 86.218 12.5199 83.1243 12.5199C81.2067 12.5199 79.5107 13.4403 78.7266 14.983H78.6072C78.6243 11.5824 79.8175 9.46875 82.093 9.46875C83.4311 9.46875 84.3942 10.2017 84.6754 11.4205H88.3146C87.9652 8.54829 85.5788 6.30682 82.093 6.30682C77.7805 6.30682 75.0107 9.80114 74.9936 15.6648C74.9851 22.0568 78.3771 24.2216 81.9652 24.2386ZM81.9482 21.3409C80.2436 21.3409 78.9822 19.9688 78.9822 18.2642C78.9908 16.5682 80.2777 15.1875 81.9737 15.1875C83.6783 15.1875 84.9226 16.5256 84.9141 18.2557C84.9226 20.0028 83.6527 21.3409 81.9482 21.3409ZM97.9538 24.3835C102.343 24.3835 104.994 21.0426 105.002 15.2898C105.011 9.57954 102.326 6.30682 97.9538 6.30682C93.5732 6.30682 90.9141 9.57102 90.9055 15.2898C90.8885 21.0256 93.5561 24.375 97.9538 24.3835ZM97.9538 21.3239C95.951 21.3239 94.6555 19.3125 94.6641 15.2898C94.6726 11.3267 95.9595 9.33239 97.9538 9.33239C99.9396 9.33239 101.235 11.3267 101.235 15.2898C101.244 19.3125 99.9482 21.3239 97.9538 21.3239Z" fill="white"/>
<circle cx="110" cy="5" r="3" fill="#2E1A61" stroke="white" stroke-width="2"/>
<defs>
<clipPath id="clip0_1_496">
<rect width="28" height="29.9562" fill="white"/>
</clipPath>
</defs>
</svg>
